# MagicaVoxel @ Ephtracy

# group
o 

# material
mtllib block02.mtl
usemtl palette

# normals
vn -1 0 0
vn 1 0 0
vn 0 0 1
vn 0 0 -1
vn 0 -1 0
vn 0 1 0

# texcoords
vt 0.974609 0.5
vt 0.978516 0.5
vt 0.982422 0.5

# verts
v -0.5 0 0.5
v -0.5 0 -0.5
v -0.5 0.1 0.4
v -0.5 0.1 0
v -0.5 0.1 -0.4
v -0.5 0.5 0.4
v -0.5 0.5 0
v -0.5 0.5 -0.4
v -0.5 0.9 0.4
v -0.5 0.9 0
v -0.5 0.9 -0.4
v -0.5 1 0.5
v -0.5 1 -0.5
v 0.4 0.1 0.4
v 0.4 0.1 0
v 0.4 0.1 -0.2
v 0.4 0.5 0.4
v 0.4 0.5 0
v 0.4 0.5 -0.2
v 0.4 0.9 0.4
v 0.4 0.9 0
v 0.4 0.9 -0.2
v -0.4 0.1 0.4
v -0.4 0.1 0
v -0.4 0.1 -0.2
v -0.4 0.5 0.4
v -0.4 0.5 0
v -0.4 0.5 -0.2
v -0.4 0.9 0.4
v -0.4 0.9 0
v -0.4 0.9 -0.2
v 0.5 0 0.5
v 0.5 0 -0.5
v 0.5 0.1 0.4
v 0.5 0.1 0
v 0.5 0.1 -0.4
v 0.5 0.5 0.4
v 0.5 0.5 0
v 0.5 0.5 -0.4
v 0.5 0.9 0.4
v 0.5 0.9 0
v 0.5 0.9 -0.4
v 0.5 1 0.5
v 0.5 1 -0.5
v -0.5 0 0.5
v -0.5 1 0.5
v -0.4 0.1 0.5
v -0.4 0.5 0.5
v -0.4 0.9 0.5
v 0 0.1 0.5
v 0 0.5 0.5
v 0 0.9 0.5
v 0.4 0.1 0.5
v 0.4 0.5 0.5
v 0.4 0.9 0.5
v 0.5 0 0.5
v 0.5 1 0.5
v -0.4 0.1 -0.2
v -0.4 0.5 -0.2
v -0.4 0.9 -0.2
v 0 0.1 -0.2
v 0 0.9 -0.2
v 0.4 0.1 -0.2
v 0.4 0.5 -0.2
v 0.4 0.9 -0.2
v -0.4 0.1 0.4
v -0.4 0.5 0.4
v -0.4 0.9 0.4
v 0 0.1 0.4
v 0 0.5 0.4
v 0 0.9 0.4
v 0.4 0.1 0.4
v 0.4 0.5 0.4
v 0.4 0.9 0.4
v -0.5 0 -0.5
v -0.5 1 -0.5
v -0.4 0.1 -0.5
v -0.4 0.5 -0.5
v -0.4 0.9 -0.5
v 0 0.1 -0.5
v 0 0.5 -0.5
v 0 0.9 -0.5
v 0.4 0.1 -0.5
v 0.4 0.5 -0.5
v 0.4 0.9 -0.5
v 0.5 0 -0.5
v 0.5 1 -0.5
v -0.5 0 0.5
v 0.5 0 0.5
v -0.4 0 0.4
v 0 0 0.4
v 0.4 0 0.4
v -0.4 0 0
v 0 0 0
v 0.4 0 0
v -0.4 0 -0.4
v 0 0 -0.4
v 0.4 0 -0.4
v -0.5 0 -0.5
v 0.5 0 -0.5
v -0.4 0.9 0.4
v 0 0.9 0.4
v 0.4 0.9 0.4
v -0.4 0.9 0
v 0 0.9 0
v 0.4 0.9 0
v -0.4 0.9 -0.2
v 0 0.9 -0.2
v 0.4 0.9 -0.2
v -0.4 0.1 0.4
v 0 0.1 0.4
v 0.4 0.1 0.4
v -0.4 0.1 0
v 0 0.1 0
v 0.4 0.1 0
v -0.4 0.1 -0.2
v 0 0.1 -0.2
v 0.4 0.1 -0.2
v -0.5 1 0.5
v 0.5 1 0.5
v -0.4 1 0.4
v 0 1 0.4
v 0.4 1 0.4
v -0.4 1 0
v 0 1 0
v 0.4 1 0
v -0.4 1 -0.4
v 0 1 -0.4
v 0.4 1 -0.4
v -0.5 1 -0.5
v 0.5 1 -0.5

# faces
f 3/3/1 2/3/1 1/3/1
f 4/3/1 2/3/1 3/3/1
f 5/3/1 2/3/1 4/3/1
f 6/3/1 3/3/1 1/3/1
f 6/1/1 4/1/1 3/1/1
f 7/2/1 5/2/1 4/2/1
f 7/1/1 4/1/1 6/1/1
f 8/3/1 2/3/1 5/3/1
f 8/2/1 5/2/1 7/2/1
f 9/2/1 7/2/1 6/2/1
f 9/3/1 6/3/1 1/3/1
f 10/1/1 8/1/1 7/1/1
f 10/2/1 7/2/1 9/2/1
f 11/3/1 2/3/1 8/3/1
f 11/1/1 8/1/1 10/1/1
f 12/3/1 10/3/1 9/3/1
f 12/3/1 9/3/1 1/3/1
f 12/3/1 11/3/1 10/3/1
f 13/3/1 2/3/1 11/3/1
f 13/3/1 11/3/1 12/3/1
f 17/2/1 15/2/1 14/2/1
f 18/1/1 16/1/1 15/1/1
f 18/2/1 15/2/1 17/2/1
f 19/1/1 16/1/1 18/1/1
f 20/1/1 18/1/1 17/1/1
f 21/2/1 19/2/1 18/2/1
f 21/1/1 18/1/1 20/1/1
f 22/2/1 19/2/1 21/2/1
f 23/1/2 24/1/2 26/1/2
f 24/2/2 25/2/2 27/2/2
f 26/1/2 24/1/2 27/1/2
f 27/2/2 25/2/2 28/2/2
f 26/2/2 27/2/2 29/2/2
f 27/1/2 28/1/2 30/1/2
f 29/2/2 27/2/2 30/2/2
f 30/1/2 28/1/2 31/1/2
f 32/3/2 33/3/2 34/3/2
f 34/3/2 33/3/2 35/3/2
f 35/3/2 33/3/2 36/3/2
f 32/3/2 34/3/2 37/3/2
f 34/2/2 35/2/2 37/2/2
f 35/1/2 36/1/2 38/1/2
f 37/2/2 35/2/2 38/2/2
f 36/3/2 33/3/2 39/3/2
f 38/1/2 36/1/2 39/1/2
f 37/1/2 38/1/2 40/1/2
f 32/3/2 37/3/2 40/3/2
f 38/2/2 39/2/2 41/2/2
f 40/1/2 38/1/2 41/1/2
f 39/3/2 33/3/2 42/3/2
f 41/2/2 39/2/2 42/2/2
f 40/3/2 41/3/2 43/3/2
f 32/3/2 40/3/2 43/3/2
f 41/3/2 42/3/2 43/3/2
f 42/3/2 33/3/2 44/3/2
f 43/3/2 42/3/2 44/3/2
f 47/3/3 46/3/3 45/3/3
f 48/3/3 46/3/3 47/3/3
f 49/3/3 46/3/3 48/3/3
f 50/3/3 47/3/3 45/3/3
f 50/1/3 48/1/3 47/1/3
f 51/2/3 49/2/3 48/2/3
f 51/1/3 48/1/3 50/1/3
f 52/3/3 46/3/3 49/3/3
f 52/2/3 49/2/3 51/2/3
f 53/2/3 51/2/3 50/2/3
f 53/3/3 50/3/3 45/3/3
f 54/1/3 52/1/3 51/1/3
f 54/2/3 51/2/3 53/2/3
f 55/3/3 46/3/3 52/3/3
f 55/1/3 52/1/3 54/1/3
f 56/3/3 54/3/3 53/3/3
f 56/3/3 53/3/3 45/3/3
f 56/3/3 55/3/3 54/3/3
f 57/3/3 46/3/3 55/3/3
f 57/3/3 55/3/3 56/3/3
f 61/2/3 59/2/3 58/2/3
f 61/2/3 60/2/3 59/2/3
f 62/2/3 60/2/3 61/2/3
f 63/2/3 62/2/3 61/2/3
f 64/2/3 62/2/3 63/2/3
f 65/2/3 62/2/3 64/2/3
f 66/1/4 67/1/4 69/1/4
f 67/2/4 68/2/4 70/2/4
f 69/1/4 67/1/4 70/1/4
f 70/2/4 68/2/4 71/2/4
f 69/2/4 70/2/4 72/2/4
f 70/1/4 71/1/4 73/1/4
f 72/2/4 70/2/4 73/2/4
f 73/1/4 71/1/4 74/1/4
f 75/3/4 76/3/4 77/3/4
f 77/3/4 76/3/4 78/3/4
f 78/3/4 76/3/4 79/3/4
f 75/3/4 77/3/4 80/3/4
f 77/2/4 78/2/4 80/2/4
f 78/1/4 79/1/4 81/1/4
f 80/2/4 78/2/4 81/2/4
f 79/3/4 76/3/4 82/3/4
f 81/1/4 79/1/4 82/1/4
f 80/1/4 81/1/4 83/1/4
f 75/3/4 80/3/4 83/3/4
f 81/2/4 82/2/4 84/2/4
f 83/1/4 81/1/4 84/1/4
f 82/3/4 76/3/4 85/3/4
f 84/2/4 82/2/4 85/2/4
f 83/3/4 84/3/4 86/3/4
f 75/3/4 83/3/4 86/3/4
f 84/3/4 85/3/4 86/3/4
f 85/3/4 76/3/4 87/3/4
f 86/3/4 85/3/4 87/3/4
f 90/3/5 89/3/5 88/3/5
f 91/3/5 89/3/5 90/3/5
f 92/3/5 89/3/5 91/3/5
f 93/3/5 90/3/5 88/3/5
f 93/2/5 91/2/5 90/2/5
f 94/1/5 92/1/5 91/1/5
f 94/2/5 91/2/5 93/2/5
f 95/3/5 89/3/5 92/3/5
f 95/1/5 92/1/5 94/1/5
f 96/1/5 94/1/5 93/1/5
f 96/3/5 93/3/5 88/3/5
f 97/2/5 95/2/5 94/2/5
f 97/1/5 94/1/5 96/1/5
f 98/3/5 89/3/5 95/3/5
f 98/2/5 95/2/5 97/2/5
f 99/3/5 97/3/5 96/3/5
f 99/3/5 96/3/5 88/3/5
f 99/3/5 98/3/5 97/3/5
f 100/3/5 89/3/5 98/3/5
f 100/3/5 98/3/5 99/3/5
f 104/1/5 102/1/5 101/1/5
f 105/2/5 103/2/5 102/2/5
f 105/1/5 102/1/5 104/1/5
f 106/2/5 103/2/5 105/2/5
f 107/2/5 105/2/5 104/2/5
f 108/1/5 106/1/5 105/1/5
f 108/2/5 105/2/5 107/2/5
f 109/1/5 106/1/5 108/1/5
f 110/2/6 111/2/6 113/2/6
f 111/1/6 112/1/6 114/1/6
f 113/2/6 111/2/6 114/2/6
f 114/1/6 112/1/6 115/1/6
f 113/1/6 114/1/6 116/1/6
f 114/2/6 115/2/6 117/2/6
f 116/1/6 114/1/6 117/1/6
f 117/2/6 115/2/6 118/2/6
f 119/3/6 120/3/6 121/3/6
f 121/3/6 120/3/6 122/3/6
f 122/3/6 120/3/6 123/3/6
f 119/3/6 121/3/6 124/3/6
f 121/1/6 122/1/6 124/1/6
f 122/2/6 123/2/6 125/2/6
f 124/1/6 122/1/6 125/1/6
f 123/3/6 120/3/6 126/3/6
f 125/2/6 123/2/6 126/2/6
f 124/2/6 125/2/6 127/2/6
f 119/3/6 124/3/6 127/3/6
f 125/1/6 126/1/6 128/1/6
f 127/2/6 125/2/6 128/2/6
f 126/3/6 120/3/6 129/3/6
f 128/1/6 126/1/6 129/1/6
f 127/3/6 128/3/6 130/3/6
f 119/3/6 127/3/6 130/3/6
f 128/3/6 129/3/6 130/3/6
f 129/3/6 120/3/6 131/3/6
f 130/3/6 129/3/6 131/3/6
